<svg width="32" height="40" viewBox="0 0 32 40" fill="none" xmlns="http://www.w3.org/2000/svg">
<path d="M29.1987 40.0011C28.4214 40.0011 27.6518 39.7075 27.2285 39.5647L15.4074 35.6448H14.5608C8.71958 35.6448 8.36556 35.6448 5.48725 33.3992H2.81674C1.13131 33.3992 0 31.7329 0 30.2094V24.6946C0 24.2582 0.284752 23.9725 0.700337 23.9725C1.11592 23.9725 1.40067 24.2661 1.40067 24.6946V30.2094C1.40067 31.0108 2.03175 31.9471 2.80904 31.9471H5.62578C5.76431 31.9471 5.91053 32.0186 6.04906 32.09C8.79654 34.1927 8.71958 34.1927 14.4916 34.1927H15.4767C15.5459 34.1927 15.6152 34.1927 15.6845 34.1927L27.6441 38.184C29.4064 38.8347 29.899 38.6204 30.3146 37.819C30.7379 36.8747 31.0149 36.2241 27.7826 34.4784L18.709 30.4871H18.2857C16.7388 30.4871 15.469 29.1779 15.469 27.5829V26.9323C15.469 26.0594 15.823 25.2659 16.4541 24.6867C15.823 24.1788 15.469 23.3774 15.469 22.5125V22.0761C15.469 20.9176 16.0308 19.9019 16.8773 19.3227C16.4541 18.8862 16.177 18.1642 16.177 17.4342V16.7835C16.177 16.2042 16.3155 15.6964 16.6003 15.26H13.3603C13.0755 15.26 12.8677 15.1172 12.7292 14.895C12.5907 14.6728 12.6599 14.3871 12.7985 14.1729L14.2068 12.0701C15.1919 10.7609 17.5161 6.2697 17.7239 3.73052C17.7932 2.85768 16.8773 1.69918 16.0385 1.55635C15.2612 1.41352 14.8456 2.27843 14.6994 3.07986C13.9298 6.19035 10.6975 10.4673 8.72727 12.213C7.81145 13.0144 7.04185 14.1015 6.33381 15.625C6.12602 15.8392 5.91053 15.99 5.63348 15.99H2.81674C2.60895 15.99 1.40837 16.0614 1.40837 17.1485V18.8862C1.40837 19.3227 1.12362 19.6083 0.708033 19.6083C0.292448 19.6083 0 19.3227 0 18.8862V17.1485C0 15.625 1.12362 14.5379 2.81674 14.5379H5.2102C5.98749 13.0858 6.82636 11.9273 7.81145 11.0545C9.85089 9.31671 12.6676 5.25403 13.2987 2.6355C13.999 -0.117922 15.7614 -0.0465074 16.254 0.024907C17.8701 0.3185 19.2092 2.12766 19.14 3.794C18.8552 6.7696 16.3925 11.483 15.4074 12.8636L14.7071 13.8079H19.0014C19.4247 13.8079 19.7018 14.1015 19.7018 14.53C19.7018 14.9585 19.417 15.252 19.0014 15.252C18.2241 15.252 17.5931 15.9027 17.5931 16.7756V17.4262C17.5931 18.2276 18.2241 18.8783 19.0014 18.8783C19.4247 18.8783 19.7018 19.1719 19.7018 19.6004C19.7018 20.0289 19.417 20.3225 19.0014 20.3225H18.4396C17.5931 20.3225 16.8927 21.1239 16.8927 22.0602V22.4966C16.8927 23.3695 17.5238 23.9487 18.4396 23.9487C18.8629 23.9487 19.14 24.2423 19.14 24.6708C19.14 25.1072 18.8552 25.3929 18.4396 25.3929H18.3011C17.5238 25.3929 16.8927 26.0436 16.8927 26.9164V27.5671C16.8927 28.3685 17.5238 29.0192 18.3011 29.0192H18.8629C18.9322 29.0192 19.0707 29.0192 19.1477 29.0906C19.2169 29.0906 19.2169 29.0906 19.2169 29.0906L28.4367 33.0818C31.4613 34.6768 32.7311 35.986 31.5998 38.3744C30.961 39.6361 30.0452 40.0011 29.1987 40.0011Z" fill="black"/>
</svg>
